<region> lovel=1 hivel=5 amp_velcurve_5=1 sample=../samples/cymbals/cy19ride/stx/grt/cy19ride_stx_grt_001.wav
<region> lovel=6 hivel=10 amp_velcurve_10=1 sample=../samples/cymbals/cy19ride/stx/grt/cy19ride_stx_grt_002.wav
<region> lovel=11 hivel=15 amp_velcurve_15=1 sample=../samples/cymbals/cy19ride/stx/grt/cy19ride_stx_grt_003.wav
<region> lovel=16 hivel=20 amp_velcurve_20=1 sample=../samples/cymbals/cy19ride/stx/grt/cy19ride_stx_grt_004.wav
<region> lovel=21 hivel=25 amp_velcurve_25=1 sample=../samples/cymbals/cy19ride/stx/grt/cy19ride_stx_grt_005.wav
<region> lovel=26 hivel=30 amp_velcurve_30=1 sample=../samples/cymbals/cy19ride/stx/grt/cy19ride_stx_grt_006.wav
<region> lovel=31 hivel=35 amp_velcurve_35=1 sample=../samples/cymbals/cy19ride/stx/grt/cy19ride_stx_grt_007.wav
<region> lovel=36 hivel=40 amp_velcurve_40=1 sample=../samples/cymbals/cy19ride/stx/grt/cy19ride_stx_grt_008.wav
<region> lovel=41 hivel=45 amp_velcurve_45=1 sample=../samples/cymbals/cy19ride/stx/grt/cy19ride_stx_grt_009.wav
<region> lovel=46 hivel=50 amp_velcurve_50=1 sample=../samples/cymbals/cy19ride/stx/grt/cy19ride_stx_grt_010.wav
<region> lovel=51 hivel=55 amp_velcurve_55=1 sample=../samples/cymbals/cy19ride/stx/grt/cy19ride_stx_grt_011.wav
<region> lovel=56 hivel=60 amp_velcurve_60=1 sample=../samples/cymbals/cy19ride/stx/grt/cy19ride_stx_grt_012.wav
<region> lovel=61 hivel=65 amp_velcurve_65=1 sample=../samples/cymbals/cy19ride/stx/grt/cy19ride_stx_grt_013.wav
<region> lovel=66 hivel=70 amp_velcurve_70=1 sample=../samples/cymbals/cy19ride/stx/grt/cy19ride_stx_grt_014.wav
<region> lovel=71 hivel=75 amp_velcurve_75=1 sample=../samples/cymbals/cy19ride/stx/grt/cy19ride_stx_grt_015.wav
<region> lovel=76 hivel=80 amp_velcurve_80=1 sample=../samples/cymbals/cy19ride/stx/grt/cy19ride_stx_grt_016.wav
<region> lovel=81 hivel=85 amp_velcurve_85=1 sample=../samples/cymbals/cy19ride/stx/grt/cy19ride_stx_grt_017.wav
<region> lovel=86 hivel=91 amp_velcurve_91=1 sample=../samples/cymbals/cy19ride/stx/grt/cy19ride_stx_grt_018.wav
<region> lovel=92 hivel=97 amp_velcurve_97=1 sample=../samples/cymbals/cy19ride/stx/grt/cy19ride_stx_grt_019.wav
<region> lovel=98 hivel=103 amp_velcurve_103=1 sample=../samples/cymbals/cy19ride/stx/grt/cy19ride_stx_grt_020.wav
<region> lovel=104 hivel=109 amp_velcurve_109=1 sample=../samples/cymbals/cy19ride/stx/grt/cy19ride_stx_grt_021.wav
<region> lovel=110 hivel=115 amp_velcurve_115=1 sample=../samples/cymbals/cy19ride/stx/grt/cy19ride_stx_grt_022.wav
<region> lovel=116 hivel=121 amp_velcurve_121=1 sample=../samples/cymbals/cy19ride/stx/grt/cy19ride_stx_grt_023.wav
<region> lovel=122 hivel=127 amp_velcurve_127=1 sample=../samples/cymbals/cy19ride/stx/grt/cy19ride_stx_grt_024.wav
